<svg width="24" height="24" viewBox="0 0 24 24" fill="none" xmlns="http://www.w3.org/2000/svg">
<path d="M21.8008 8C21.8008 8 21.6055 6.62109 21.0039 6.01563C20.2422 5.21875 19.3906 5.21484 19 5.16797C16.2031 4.96484 12.0039 4.96484 12.0039 4.96484H11.9961C11.9961 4.96484 7.79687 4.96484 5 5.16797C4.60938 5.21484 3.75781 5.21875 2.99609 6.01563C2.39453 6.62109 2.20312 8 2.20312 8C2.20312 8 2 9.62109 2 11.2383V12.7539C2 14.3711 2.19922 15.9922 2.19922 15.9922C2.19922 15.9922 2.39453 17.3711 2.99219 17.9766C3.75391 18.7734 4.75391 18.7461 5.19922 18.832C6.80078 18.9844 12 19.0313 12 19.0313C12 19.0313 16.2031 19.0234 19 18.8242C19.3906 18.7773 20.2422 18.7734 21.0039 17.9766C21.6055 17.3711 21.8008 15.9922 21.8008 15.9922C21.8008 15.9922 22 14.375 22 12.7539V11.2383C22 9.62109 21.8008 8 21.8008 8ZM9.93359 14.5938V8.97266L15.3359 11.793L9.93359 14.5938Z" fill="black"/>
</svg>
